<svg width="16" height="16" viewBox="0 0 16 16" fill="none" xmlns="http://www.w3.org/2000/svg">
<path fill-rule="evenodd" clip-rule="evenodd" d="M1.70856 6.272C1.47134 6.46177 1.33325 6.74908 1.33325 7.05286V13.5722C1.33325 14.1245 1.78097 14.5722 2.33325 14.5722L5.99992 14.5722V10.5722C5.99992 9.46767 6.89535 8.57224 7.99992 8.57224C9.10449 8.57224 9.99992 9.46767 9.99992 10.5722V14.5722L13.6666 14.5722C14.2189 14.5722 14.6666 14.1245 14.6666 13.5722V7.05286C14.6666 6.74908 14.5285 6.46177 14.2913 6.272L8.62461 1.73866C8.2594 1.44649 7.74044 1.44649 7.37522 1.73866L1.70856 6.272Z" fill="#051033" fill-opacity="0.01"/>
<mask id="mask0" mask-type="alpha" maskUnits="userSpaceOnUse" x="1" y="1" width="14" height="14">
<path fill-rule="evenodd" clip-rule="evenodd" d="M1.70856 6.272C1.47134 6.46177 1.33325 6.74908 1.33325 7.05286V13.5722C1.33325 14.1245 1.78097 14.5722 2.33325 14.5722L5.99992 14.5722V10.5722C5.99992 9.46767 6.89535 8.57224 7.99992 8.57224C9.10449 8.57224 9.99992 9.46767 9.99992 10.5722V14.5722L13.6666 14.5722C14.2189 14.5722 14.6666 14.1245 14.6666 13.5722V7.05286C14.6666 6.74908 14.5285 6.46177 14.2913 6.272L8.62461 1.73866C8.2594 1.44649 7.74044 1.44649 7.37522 1.73866L1.70856 6.272Z" fill="white"/>
</mask>
<g mask="url(#mask0)">
<path fill-rule="evenodd" clip-rule="evenodd" d="M0 0H16V16H0V0Z" fill="#C9CED6"/>
</g>
</svg>
