<svg width="12" height="12" viewBox="0 0 12 12" fill="none" xmlns="http://www.w3.org/2000/svg">
<path d="M11.0094 5.99844C11.0094 5.34236 11.4187 4.78313 12 4.55819C11.8469 3.91773 11.5938 3.31789 11.2594 2.77428C11.0594 2.86175 10.8469 2.90862 10.6313 2.90862C10.2375 2.90862 9.84375 2.75866 9.54062 2.45873C9.075 1.99323 8.97188 1.30903 9.22188 0.740432C8.68125 0.406144 8.07812 0.153085 7.44063 0C7.21875 0.577974 6.65625 0.990367 6 0.990367C5.34375 0.990367 4.78125 0.577974 4.55937 0C3.91875 0.153085 3.31875 0.406144 2.775 0.740432C3.02813 1.30591 2.92188 1.99323 2.45625 2.45873C2.15625 2.75866 1.75937 2.90862 1.36562 2.90862C1.15 2.90862 0.9375 2.86488 0.7375 2.77428C0.40625 3.32101 0.153125 3.92085 0 4.56131C0.578125 4.78313 0.990625 5.34236 0.990625 6.00156C0.990625 6.65764 0.58125 7.21687 0.00312495 7.44181C0.15625 8.08227 0.409375 8.68211 0.74375 9.22572C0.94375 9.13824 1.15625 9.09451 1.36875 9.09451C1.7625 9.09451 2.15625 9.24447 2.45937 9.54439C2.92188 10.0068 3.02812 10.6941 2.77812 11.2596C3.32187 11.5939 3.925 11.8469 4.5625 12C4.78438 11.422 5.34375 11.0128 6 11.0128C6.65625 11.0128 7.21562 11.422 7.4375 12C8.07812 11.8469 8.67813 11.5939 9.22188 11.2596C8.97188 10.6941 9.07812 10.0099 9.54062 9.54439C9.84062 9.24447 10.2344 9.09451 10.6313 9.09451C10.8438 9.09451 11.0594 9.13824 11.2563 9.22572C11.5906 8.68211 11.8438 8.07915 11.9969 7.44181C11.4219 7.21687 11.0094 6.65764 11.0094 5.99844ZM6.02812 8.49466C4.64375 8.49466 3.52812 7.37308 3.52812 5.99531C3.52812 4.61755 4.64375 3.49596 6.02812 3.49596C7.4125 3.49596 8.52812 4.61755 8.52812 5.99531C8.52812 7.37308 7.4125 8.49466 6.02812 8.49466Z" fill="#C9CED6"/>
</svg>
